<svg xmlns="http://www.w3.org/2000/svg" viewBox="0 0 487 120" width="487" height="120">
  <defs><linearGradient id="brw" x1="0" y1="0" x2="1" y2="0"><stop offset="0" stop-color="#22D3EE"/><stop offset=".55" stop-color="#3B82F6"/><stop offset="1" stop-color="#A855F7"/></linearGradient><linearGradient id="tile" x1="0" y1="0" x2="1" y2="1"><stop offset="0" stop-color="#22D3EE"/><stop offset=".55" stop-color="#3B82F6"/><stop offset="1" stop-color="#A855F7"/></linearGradient></defs>
  <rect x="12" y="12.0" width="96" height="96" rx="23.04" fill="url(#tile)"/><path d="M 35.64 51.13 A 25.92 25.92 0 0 1 84.65 51.99" fill="none" stroke="#FFFFFF" stroke-width="8.16" stroke-linecap="round"/><path d="M 88.06 62.47 L 91.92 46.63 L 75.62 51.92 Z" fill="#FFFFFF"/><path d="M 84.36 68.87 A 25.92 25.92 0 0 1 35.35 68.01" fill="none" stroke="#FFFFFF" stroke-width="8.16" stroke-linecap="round"/><path d="M 31.94 57.53 L 28.08 73.37 L 44.38 68.08 Z" fill="#FFFFFF"/><g transform="translate(130,84.0) scale(0.07,-0.07)" fill="#FFFFFF"><path transform="translate(0,0)" d="M66 0V745H221V135H536V0Z"/><path transform="translate(547,0)" d="M224 -12Q165 -12 122.0 7.0Q79 26 56.0 61.5Q33 97 33 146Q33 192 54.0 227.5Q75 263 118.5 287.0Q162 311 227 321L394 348V238L254 213Q222 207 205.0 192.5Q188 178 188 151Q188 126 207.0 112.0Q226 98 254 98Q291 98 319.0 114.0Q347 130 362.5 157.5Q378 185 378 218V360Q378 391 353.5 412.0Q329 433 287 433Q247 433 216.5 411.0Q186 389 172 353L52 410Q68 456 103.0 489.0Q138 522 187.0 540.0Q236 558 294 558Q363 558 416.0 533.0Q469 508 498.5 463.5Q528 419 528 360V0H388V88L422 94Q398 58 369.0 34.5Q340 11 304.0 -0.5Q268 -12 224 -12Z"/><path transform="translate(1130,0)" d="M318 -6Q219 -6 164.5 47.5Q110 101 110 197V416H18V546H23Q65 546 87.5 567.0Q110 588 110 630V670H260V546H388V416H260V207Q260 179 270.0 160.5Q280 142 301.0 133.0Q322 124 353 124Q360 124 369.0 125.0Q378 126 388 127V0Q373 -2 354.0 -4.0Q335 -6 318 -6Z"/><path transform="translate(1551,0)" d="M224 -12Q165 -12 122.0 7.0Q79 26 56.0 61.5Q33 97 33 146Q33 192 54.0 227.5Q75 263 118.5 287.0Q162 311 227 321L394 348V238L254 213Q222 207 205.0 192.5Q188 178 188 151Q188 126 207.0 112.0Q226 98 254 98Q291 98 319.0 114.0Q347 130 362.5 157.5Q378 185 378 218V360Q378 391 353.5 412.0Q329 433 287 433Q247 433 216.5 411.0Q186 389 172 353L52 410Q68 456 103.0 489.0Q138 522 187.0 540.0Q236 558 294 558Q363 558 416.0 533.0Q469 508 498.5 463.5Q528 419 528 360V0H388V88L422 94Q398 58 369.0 34.5Q340 11 304.0 -0.5Q268 -12 224 -12Z"/><path transform="translate(2134,0)" d="M55 0V546H195V413L180 435Q192 498 238.0 528.0Q284 558 348 558Q416 558 467.5 523.5Q519 489 532 431L489 427Q516 494 566.0 526.0Q616 558 683 558Q742 558 787.5 532.0Q833 506 859.0 459.5Q885 413 885 351V0H735V319Q735 351 723.5 374.0Q712 397 691.0 410.0Q670 423 640 423Q611 423 589.5 410.0Q568 397 556.5 374.0Q545 351 545 319V0H395V319Q395 351 383.5 374.0Q372 397 351.0 410.0Q330 423 300 423Q271 423 249.5 410.0Q228 397 216.5 374.0Q205 351 205 319V0Z"/></g><g transform="translate(346.41,84.0) scale(0.07,-0.07)" fill="url(#brw)"><path transform="translate(0,0)" d="M66 0V745H352Q429 745 488.5 718.0Q548 691 582.0 638.0Q616 585 616 507Q616 431 581.5 378.0Q547 325 487.5 297.5Q428 270 352 270H221V0ZM221 405H353Q386 405 410.0 418.0Q434 431 447.5 454.0Q461 477 461 507Q461 538 447.5 561.0Q434 584 410.0 597.0Q386 610 353 610H221Z"/><path transform="translate(649,0)" d="M224 -12Q165 -12 122.0 7.0Q79 26 56.0 61.5Q33 97 33 146Q33 192 54.0 227.5Q75 263 118.5 287.0Q162 311 227 321L394 348V238L254 213Q222 207 205.0 192.5Q188 178 188 151Q188 126 207.0 112.0Q226 98 254 98Q291 98 319.0 114.0Q347 130 362.5 157.5Q378 185 378 218V360Q378 391 353.5 412.0Q329 433 287 433Q247 433 216.5 411.0Q186 389 172 353L52 410Q68 456 103.0 489.0Q138 522 187.0 540.0Q236 558 294 558Q363 558 416.0 533.0Q469 508 498.5 463.5Q528 419 528 360V0H388V88L422 94Q398 58 369.0 34.5Q340 11 304.0 -0.5Q268 -12 224 -12Z"/><path transform="translate(1232,0)" d="M140 -220Q116 -220 93.5 -216.0Q71 -212 54 -203V-80Q68 -84 87.0 -87.0Q106 -90 122 -90Q166 -90 185.0 -69.5Q204 -49 216 -23L253 62L251 -63L11 546H172L331 113H271L430 546H591L357 -51Q335 -107 303.0 -145.0Q271 -183 230.5 -201.5Q190 -220 140 -220Z"/></g></svg>